<svg xmlns="http://www.w3.org/2000/svg" version="1.1" xmlns:xlink="http://www.w3.org/1999/xlink" xmlns:svgjs="http://svgjs.dev/svgjs" width="2000" height="1285" viewBox="0 0 2000 1285"><g transform="matrix(1,0,0,1,0.213333333333253,0.3386165887983452)"><svg viewBox="0 0 375 241" data-background-color="#ffffff" preserveAspectRatio="xMidYMid meet" height="1285" width="2000" xmlns="http://www.w3.org/2000/svg" xmlns:xlink="http://www.w3.org/1999/xlink"><g id="tight-bounds" transform="matrix(1,0,0,1,-0.03976036071776434,-0.063507080078125)"><svg viewBox="0 0 375.07952880859375 241.12701416015625" height="241.12701416015625" width="375.07952880859375"><g><svg></svg></g><g><svg viewBox="0 0 375.07952880859375 241.12701416015625" height="241.12701416015625" width="375.07952880859375"><g transform="matrix(1,0,0,1,-10.220239639282227,-6.072998046875)"><path xmlns="http://www.w3.org/2000/svg" d="M10.22 241.127v-235.054h375.08v235.054h-14.768l0-4.855h9.913v-225.344h-365.37v225.344l14.121 0 0 4.855z" fill="#ffffff" fill-rule="nonzero" stroke="none" stroke-width="1" stroke-linecap="butt" stroke-linejoin="miter" stroke-miterlimit="10" stroke-dasharray="" stroke-dashoffset="0" font-family="none" font-weight="none" font-size="none" text-anchor="none" style="mix-blend-mode: normal" data-fill-palette-color="tertiary"></path><g><path xmlns="http://www.w3.org/2000/svg" d="M43.76 232.073c0-2.021 0.591-3.645 1.772-4.872 1.181-1.227 2.801-1.84 4.858-1.84 2.053 0 4.159 0.204 6.316 0.614v0l-0.681 5.451c-2.249-0.522-3.793-0.784-4.633-0.784v0c-1.068 0-1.601 0.432-1.602 1.295v0c0 0.341 0.257 0.67 0.77 0.988 0.509 0.318 1.127 0.652 1.854 1.001 0.727 0.354 1.454 0.775 2.18 1.261 0.727 0.491 1.347 1.19 1.86 2.099 0.509 0.909 0.763 1.953 0.764 3.134v0c0 2.158-0.579 3.827-1.738 5.008-1.158 1.181-2.798 1.772-4.92 1.772-2.126 0-4.2-0.329-6.221-0.988v0l0.375-5.076c2.43 0.704 4.122 1.056 5.076 1.056 0.954 0 1.431-0.42 1.431-1.261v0c0-0.432-0.254-0.829-0.763-1.192-0.513-0.363-1.133-0.727-1.86-1.09-0.727-0.363-1.46-0.784-2.201-1.261-0.736-0.477-1.358-1.17-1.867-2.078-0.513-0.909-0.77-1.987-0.77-3.237zM86.913 242.362l-0.171 4.531c-1.681 0.204-3.139 0.307-4.374 0.307-1.24 0-2.205-0.325-2.896-0.974-0.695-0.645-1.043-1.763-1.043-3.353v0-7.904h-1.635v-4.225h1.908l0.307-3.134h5.144v3.134h3.032l-0.238 4.225h-2.828v6.78c0 0.477 0.227 0.715 0.681 0.715v0c0.045 0 0.75-0.034 2.113-0.102zM113.916 235.003v0c-0.591 0-0.977 0.198-1.158 0.593-0.182 0.4-0.273 1.008-0.273 1.826v0h2.964v-0.818c0-1.068-0.511-1.601-1.533-1.601zM114.053 230.131v0c2.339 0 4.016 0.561 5.028 1.683 1.008 1.127 1.513 2.735 1.513 4.824v0c0 0.273-0.08 1.499-0.239 3.68v0h-7.767c0 1.703 0.784 2.555 2.35 2.555v0c0.75 0 2.215-0.261 4.395-0.783v0l0.477 4.224c-1.908 0.591-3.816 0.886-5.723 0.886v0c-2.339 0-4.134-0.768-5.383-2.303-1.249-1.531-1.874-3.614-1.874-6.248v0c0-5.678 2.408-8.517 7.223-8.518zM153.226 234.799v0l-0.17 7.052c0 0.432 0.107 0.72 0.32 0.865 0.218 0.15 0.588 0.225 1.11 0.225v0l-0.511 4.123c-1.317 0.091-2.044 0.136-2.18 0.136v0c-1.681 0-2.748-0.579-3.203-1.738v0h-0.17c-0.84 1.158-2.135 1.738-3.884 1.738v0c-1.34 0-2.369-0.432-3.087-1.295-0.713-0.863-1.07-2.044-1.069-3.543v0c0-1.885 0.584-3.191 1.751-3.918 1.172-0.727 3.019-1.204 5.54-1.431v0-0.818c0-0.636-0.318-0.954-0.954-0.953v0c-1.09 0-2.794 0.329-5.111 0.988v0l-0.852-4.975c2.907-0.75 5.326-1.124 7.257-1.124 1.931 0 3.282 0.375 4.055 1.124 0.772 0.75 1.158 1.931 1.158 3.544zM146.65 243.214v0c0.84 0 1.261-0.443 1.261-1.329v0-1.669c-0.84 0.114-1.438 0.291-1.792 0.531-0.35 0.236-0.525 0.638-0.525 1.206v0c0 0.84 0.352 1.261 1.056 1.261zM185.306 238.683l3.305 8.176h-6.303l-2.078-6.269h-0.137v6.269h-5.553v-21.838h5.621v12.026h0.137l2.487-6.507h5.962zM214.047 231.732h0.136c1.249-1.068 2.601-1.601 4.055-1.601 1.454 0 2.483 0.345 3.086 1.036 0.6 0.695 0.899 1.735 0.9 3.121v0 12.571h-5.792v-10.629c0-0.568-0.25-0.852-0.75-0.852v0c-0.636 0-1.17 0.159-1.601 0.477v0 11.004h-5.724v-21.838h5.69zM242.754 238.628c0-2.985 0.575-5.147 1.724-6.487 1.145-1.34 2.939-2.01 5.383-2.01 2.439 0 4.216 0.659 5.329 1.976 1.113 1.317 1.669 3.48 1.669 6.487 0 3.012-0.545 5.199-1.635 6.562-1.09 1.363-2.873 2.044-5.349 2.044-2.476 0-4.281-0.681-5.417-2.044-1.136-1.363-1.703-3.539-1.704-6.528zM250.951 235.412c-0.15-0.454-0.52-0.681-1.11-0.682-0.591 0-0.965 0.227-1.125 0.682-0.159 0.454-0.238 1.408-0.238 2.862v0 0.817c0 1.613 0.08 2.657 0.238 3.135 0.159 0.477 0.529 0.715 1.111 0.715 0.577 0 0.945-0.238 1.104-0.715 0.159-0.477 0.238-1.454 0.238-2.93v0-0.988c0-1.476-0.073-2.442-0.218-2.896zM281.451 247.2v0c-2.703 0-4.054-1.499-4.055-4.497v0-12.163h5.792v10.766c0 0.568 0.25 0.852 0.75 0.852v0c0.636 0 1.17-0.159 1.601-0.477v0-11.141h5.724v16.251h-5.417v-1.192h-0.137c-1.249 1.068-2.669 1.601-4.258 1.601zM311.18 235.357c0-1.644 0.504-2.928 1.512-3.849 1.013-0.918 2.405-1.376 4.177-1.377 1.772 0 3.566 0.227 5.383 0.681v0l-0.579 4.736c-2.317-0.522-3.873-0.784-4.667-0.783v0c-0.477 0-0.715 0.193-0.716 0.579v0c0 0.25 0.261 0.477 0.784 0.681v0c1.817 0.659 3.184 1.408 4.102 2.249 0.922 0.84 1.383 2.101 1.383 3.781 0 1.681-0.432 2.957-1.295 3.83-0.863 0.877-2.187 1.315-3.972 1.315-1.781 0-3.557-0.227-5.329-0.681v0l0.375-4.6c2.271 0.613 3.741 0.92 4.409 0.92 0.672 0 1.008-0.159 1.008-0.477 0-0.318-0.25-0.568-0.749-0.749v0c-2.021-0.772-3.498-1.597-4.429-2.474-0.931-0.872-1.397-2.133-1.397-3.782zM349.29 235.003v0c-0.591 0-0.977 0.198-1.158 0.593-0.182 0.4-0.273 1.008-0.273 1.826v0h2.964v-0.818c0-1.068-0.511-1.601-1.533-1.601zM349.426 230.131v0c2.339 0 4.016 0.561 5.029 1.683 1.008 1.127 1.513 2.735 1.513 4.824v0c0 0.273-0.08 1.499-0.239 3.68v0h-7.768c0 1.703 0.784 2.555 2.351 2.555v0c0.75 0 2.215-0.261 4.395-0.783v0l0.477 4.224c-1.908 0.591-3.816 0.886-5.724 0.886v0c-2.339 0-4.134-0.768-5.383-2.303-1.249-1.531-1.874-3.614-1.873-6.248v0c0-5.678 2.408-8.517 7.222-8.518z" fill="#ffffff" fill-rule="nonzero" stroke="none" stroke-width="1" stroke-linecap="butt" stroke-linejoin="miter" stroke-miterlimit="10" stroke-dasharray="" stroke-dashoffset="0" font-family="none" font-weight="none" font-size="none" text-anchor="none" style="mix-blend-mode: normal" data-fill-palette-color="secondary"></path></g></g><g transform="matrix(1,0,0,1,29.331764404296877,50.09352710085287)"><svg viewBox="0 0 316.416 140.93995995845052" height="140.93995995845052" width="316.416"><g><svg viewBox="0 0 316.416 140.93995995845052" height="140.93995995845052" width="316.416"><g><svg viewBox="0 0 316.416 140.93995995845052" height="140.93995995845052" width="316.416"><g transform="matrix(1,0,0,1,0,87.10654948509125)"><svg viewBox="0 0 316.416 53.83341047335925" height="53.83341047335925" width="316.416"><g id="textblocktransform"><svg viewBox="0 0 316.416 53.83341047335925" height="53.83341047335925" width="316.416" id="textblock"><g><svg viewBox="0 0 316.416 53.83341047335925" height="53.83341047335925" width="316.416"><g transform="matrix(1,0,0,1,0,0)"><svg width="316.416" viewBox="3.3499999046325684 -36.54999923706055 218.62998962402344 37.20000076293945" height="53.83341047335925" data-palette-color="#000000"><path d="M4.1-33.2L3.35-36.45 14.4-36.45Q18-36.45 20.83-35.35 23.65-34.25 25.25-31.85 26.85-29.45 26.85-25.45L26.85-25.45Q26.85-21.75 25.15-19.33 23.45-16.9 20.65-15.68 17.85-14.45 14.45-14.45L14.45-14.45 9.2-14.45 9.2 0 4.1 0 4.1-33.2ZM14.45-32.7L9.2-32.7 9.2-18.15 14.4-18.15Q17.7-18.15 19.6-20.18 21.5-22.2 21.5-25.45L21.5-25.45Q21.5-28.85 19.7-30.78 17.9-32.7 14.45-32.7L14.45-32.7ZM31.05-24.75L35.95-25.3Q36.9-23.05 37.1-20.55L37.1-20.55Q38.4-22.6 40.6-23.95 42.8-25.3 45.3-25.3L45.3-25.3 44.3-20.6Q41.95-20.6 40.25-19.38 38.55-18.15 37.2-16.15L37.2-16.15 37.2 0 32.65 0 32.65-18.05Q32.65-19 32.5-20.28 32.35-21.55 32-22.75 31.65-23.95 31.05-24.75L31.05-24.75ZM55.65-33.35L55.65-33.35Q55.65-32.05 54.72-31.1 53.8-30.15 52.4-30.15L52.4-30.15Q51.09-30.15 50.17-31.1 49.24-32.05 49.24-33.35L49.24-33.35Q49.24-34.65 50.17-35.6 51.09-36.55 52.45-36.55L52.45-36.55Q53.75-36.55 54.7-35.6 55.65-34.65 55.65-33.35ZM49.59-24.85L54.75-24.85 54.75 0 50.2 0 50.2-21.95 49.59-24.85ZM61.09-24.7L66.04-25.25Q66.39-24.45 66.62-23.58 66.84-22.7 66.94-21.85L66.94-21.85Q68.39-23.2 70.29-24.33 72.19-25.45 74.29-25.45L74.29-25.45Q76.59-25.45 78.29-24.5 79.99-23.55 80.99-21.4L80.99-21.4Q82.54-22.95 84.57-24.2 86.59-25.45 88.84-25.45L88.84-25.45Q91.59-25.45 93.22-24.3 94.84-23.15 95.57-21.2 96.29-19.25 96.29-16.65L96.29-16.65 96.29 0 91.74 0 91.74-15.55Q91.74-17 91.52-18.38 91.29-19.75 90.44-20.65 89.59-21.55 87.79-21.55L87.79-21.55Q86.14-21.55 84.49-20.48 82.84-19.4 81.74-18.3L81.74-18.3 81.74 0 77.19 0 77.19-15.55Q77.19-17 76.97-18.38 76.74-19.75 75.92-20.65 75.09-21.55 73.24-21.55L73.24-21.55Q72.24-21.55 71.12-21.05 69.99-20.55 68.99-19.8 67.99-19.05 67.24-18.35L67.24-18.35 67.24 0 62.69 0 62.69-18Q62.69-19 62.52-20.23 62.34-21.45 61.99-22.65 61.64-23.85 61.09-24.7L61.09-24.7ZM113.64-25.45L113.64-25.45Q116.74-25.45 118.82-24.18 120.89-22.9 121.94-20.68 122.99-18.45 122.99-15.6L122.99-15.6Q122.99-14.9 122.92-14.15 122.84-13.4 122.69-12.55L122.69-12.55 106.99-12.55Q106.99-8 109.07-5.5 111.14-3 114.54-3L114.54-3Q115.99-3 117.59-3.45 119.19-3.9 120.89-4.85L120.89-4.85 122.44-2.15Q120.74-0.75 118.44-0.05 116.14 0.65 113.94 0.65L113.94 0.65Q110.04 0.65 107.42-1.15 104.79-2.95 103.49-5.9 102.19-8.85 102.19-12.15L102.19-12.15Q102.19-14.7 102.92-17.05 103.64-19.4 105.09-21.33 106.54-23.25 108.67-24.35 110.79-25.45 113.64-25.45ZM113.29-22.1L113.29-22.1Q111.59-22.1 110.32-21.18 109.04-20.25 108.29-18.8 107.54-17.35 107.29-15.85L107.29-15.85 118.24-15.85Q118.34-17.8 117.74-19.2 117.14-20.6 116.02-21.35 114.89-22.1 113.29-22.1ZM150.19-25.45L150.19-25.45Q152.09-25.45 154.04-24.83 155.99-24.2 157.79-22.95L157.79-22.95 155.39-19.85Q153.99-20.95 152.69-21.48 151.39-22 150.09-22L150.09-22Q148.54-22 147.31-21.28 146.09-20.55 145.16-19.25 144.24-17.95 143.76-16.23 143.29-14.5 143.29-12.45L143.29-12.45Q143.29-7.85 145.34-5.4 147.39-2.95 150.59-2.95L150.59-2.95Q152.04-2.95 153.41-3.38 154.79-3.8 156.29-4.7L156.29-4.7 157.69-1.85Q155.64-0.6 153.81 0.03 151.99 0.65 149.64 0.65L149.64 0.65Q146.29 0.65 143.76-1 141.24-2.65 139.81-5.63 138.39-8.6 138.39-12.6L138.39-12.6Q138.39-16.5 139.96-19.4 141.54-22.3 144.24-23.88 146.94-25.45 150.19-25.45ZM162.08-24.85L167.28-24.85 167.28-9.45Q167.28-8.05 167.53-6.63 167.78-5.2 168.61-4.23 169.43-3.25 171.23-3.25L171.23-3.25Q173.03-3.25 174.48-4.03 175.93-4.8 176.83-6.15 177.73-7.5 177.73-9.3L177.73-9.3 177.73-21.95Q177.73-22 177.58-22.68 177.43-23.35 177.28-24.05 177.13-24.75 177.08-24.85L177.08-24.85 182.28-24.85 182.28-5.2Q182.28-4.15 182.63-3.68 182.98-3.2 183.73-3.2L183.73-3.2Q184.43-3.2 185.63-3.65L185.63-3.65 186.53-0.8Q185.53-0.25 184.26 0.1 182.98 0.45 181.83 0.45L181.83 0.45Q180.48 0.45 179.43-0.3 178.38-1.05 178.08-2.95L178.08-2.95Q176.58-1.4 174.53-0.38 172.48 0.65 170.28 0.65L170.28 0.65Q167.53 0.65 165.86-0.48 164.18-1.6 163.46-3.58 162.73-5.55 162.73-8.15L162.73-8.15 162.73-21.95 162.08-24.85ZM193.38-32L196.68-32Q196.33-30.25 196.06-28.43 195.78-26.6 195.68-24.85L195.68-24.85 202.08-24.85 201.23-21.55 195.68-21.55 195.68-6.1Q195.68-5.2 195.88-4.48 196.08-3.75 196.63-3.33 197.18-2.9 198.23-2.9L198.23-2.9Q199.03-2.9 199.83-3.05 200.63-3.2 201.38-3.4L201.38-3.4 202.08-0.4Q200.83-0.05 199.61 0.25 198.38 0.55 196.93 0.55L196.93 0.55Q193.73 0.55 192.43-1.13 191.13-2.8 191.13-5.9L191.13-5.9 191.13-21.55 187.33-21.55 187.33-24.2Q189.33-24.25 190.53-25.53 191.73-26.8 192.38-28.6 193.03-30.4 193.38-32L193.38-32ZM215.03-25.45L215.03-25.45Q216.73-25.45 218.48-25.05 220.23-24.65 221.68-23.75L221.68-23.75 220.08-20.35Q219.03-21.2 217.68-21.65 216.33-22.1 215.03-22.1L215.03-22.1Q213.28-22.1 211.98-21.33 210.68-20.55 210.68-18.9L210.68-18.9Q210.68-17.15 211.83-16.3 212.98-15.45 214.63-14.7L214.63-14.7Q215.88-14.1 217.15-13.5 218.43-12.9 219.53-12.05 220.63-11.2 221.3-9.95 221.98-8.7 221.98-6.85L221.98-6.85Q221.98-4.3 220.7-2.63 219.43-0.95 217.4-0.15 215.38 0.65 213.08 0.65L213.08 0.65Q211.08 0.65 209 0.1 206.93-0.45 205.23-1.45L205.23-1.45 207.08-4.7Q208.28-3.85 209.75-3.28 211.23-2.7 212.68-2.7L212.68-2.7Q214.48-2.7 215.85-3.58 217.23-4.45 217.23-6.25L217.23-6.25Q217.23-7.45 216.48-8.25 215.73-9.05 214.58-9.68 213.43-10.3 212.18-10.85L212.18-10.85Q210.68-11.55 209.23-12.4 207.78-13.25 206.85-14.6 205.93-15.95 205.93-18.1L205.93-18.1Q205.93-20.55 207.25-22.18 208.58-23.8 210.65-24.63 212.73-25.45 215.03-25.45Z" opacity="1" transform="matrix(1,0,0,1,0,0)" fill="#ffffff" class="undefined-text-0" data-fill-palette-color="primary" id="text-0"></path></svg></g></svg></g></svg></g></svg></g><g transform="matrix(1,0,0,1,126.0853773944788,0)"><svg viewBox="0 0 64.24524521104239 74.3977732741825" height="74.3977732741825" width="64.24524521104239"><g><svg xmlns="http://www.w3.org/2000/svg" viewBox="14.500263214111328 6.371707439422607 99.62049865722656 115.36329650878906" x="0" y="0" height="74.3977732741825" width="64.24524521104239" class="icon-icon-0" data-fill-palette-color="accent" id="icon-0"><g fill="#d2d6dc" data-fill-palette-color="accent"><path d="M20.736 87.6a35.4 35.4 0 0 0 4.224-2.988 28.7 28.7 0 0 1 2.981-3.519c2.946-3.135 4.936-6.611 7.366-10.123a9.629 9.629 0 0 1 0.607-0.789c0.587-0.936 1.18-1.871 1.787-2.8C43.259 58.9 49.613 50.918 55.68 42.8a61.533 61.533 0 0 0 7.282-11.806 11.448 11.448 0 0 1 3.163-4.343 11.485 11.485 0 0 1 1.661-0.985c2.807-1.724 0.887-3.023 1.487-4.817 0.65-1.941 1.969-2.562 2.968-4.294 0.16-0.279 0.314-0.565 0.467-0.838a37.224 37.224 0 0 0-5.082 2.842c-3.973 2.66-9.258 6.025-11.737 10.27-2.206 3.784-4.07 7.254-7.17 10.417-3.505 3.582-7.143 6.926-10.061 11.038-2.674 3.771-5.4 7.464-8.232 11.123-3.009 3.888-6.856 7.268-9.432 11.478C18.627 76.737 20.84 81.9 20.91 86.2a4.656 4.656 0 0 1-0.181 1.41C20.729 87.6 20.729 87.6 20.736 87.6ZM60.113 26.768c1.215 0.021 2.137 0.307 2.144 0.635s-0.992 0.566-2.144 0.545c-1.04-0.014-2.094-0.035-2.129-0.37C57.942 27.27 58.766 26.775 60.113 26.768Zm-2.862 3.714c1.424-0.2 2.611-0.091 2.653 0.23s-1.069 0.74-2.493 0.936-2.611 0.091-2.653-0.237S55.833 30.67 57.251 30.482Zm-2.06 4.273c1.347 0 2.444 0.258 2.444 0.586s-1.1 0.587-2.444 0.587-2.444-0.259-2.444-0.587S53.836 34.755 55.191 34.755Zm-3.994 5.8c1.18-0.028 2.144 0.216 2.151 0.544s-0.943 0.608-2.123 0.636-2.143-0.224-2.15-0.545S50.017 40.578 51.2 40.557Zm-5.515 4.8c1.145 0.07 2.045 0.391 2 0.719s-0.977 0.524-2.094 0.454-2.032-0.4-2-0.719S44.544 45.283 45.682 45.36Zm-3.8 6.06c1.619 0 2.925 0.266 2.925 0.594s-1.306 0.586-2.925 0.586-2.926-0.265-2.926-0.586S40.264 51.42 41.877 51.42ZM39.3 56.657c1.355 0 2.444 0.265 2.444 0.593s-1.089 0.587-2.444 0.587-2.443-0.266-2.443-0.587S37.953 56.657 39.3 56.657ZM34.029 63.01c1.32 0.056 2.388 0.37 2.395 0.7s-1.117 0.537-2.5 0.474c-1.347-0.132-2.415-0.5-2.388-0.824S32.682 62.878 34.029 63.01Zm-1.7 3.966c1.781-0.028 3.212-0.119 3.317 0.223 0.091 0.28-1.4 0.922-3.3 0.957-1.864 0.007-3.337-0.286-3.337-0.607S30.517 66.983 32.325 66.976ZM27.32 71.039c2.08-0.307 3.839-0.237 3.868 0.084s-1.613 0.775-3.708 1.082c-2.157 0.308-3.861 0.1-3.889-0.209C23.563 71.661 25.288 71.333 27.32 71.039Zm-7.129 4.539c-0.035-0.328 2.157-0.824 4.908-1.11 2.73-0.287 4.985-0.259 5.041 0.062s-2.143 0.817-4.908 1.1C22.488 75.927 20.226 75.9 20.191 75.578Z" fill="#ffffff" data-fill-palette-color="accent"></path><path d="M81.415 13.823a0.74 0.74 0 0 1-0.9 0.51 7.92 7.92 0 0 0-3.854 0.028c-0.133 0.042-0.265 0.084-0.391 0.126-2.122 0.712-2.081 2.29-3.463 3.728a7.22 7.22 0 0 0-2.136 5.152 3.486 3.486 0 0 1-0.307 1.523A5.281 5.281 0 0 1 67.814 27.3c-2.506 1.571-3.239 3.8-4.371 6.361a31.24 31.24 0 0 1-3.6 6.039c-2.716 3.638-5.376 7.317-8.113 10.934-3 3.937-5.879 7.889-8.685 11.9l0.055 0.021c0.357-0.384 0.713-0.761 1.083-1.125a68.108 68.108 0 0 0 8.992-10.863C55.708 46.757 58.7 43.28 61 39.314c1.948-3.365 3.658-7.066 6.381-9.907 2.786-2.905 5.97-4.455 9.265-6.647 3-2 4.9-4.8 8.26-5.9a8.129 8.129 0 0 1-1.536-1.773 7.6 7.6 0 0 0-1.92-1.361C81.436 13.753 81.429 13.788 81.415 13.823Z" fill="#ffffff" data-fill-palette-color="accent"></path><path d="M35.495 107.645a6 6 0 0 1-2.346-4.419 10.587 10.587 0 0 1-4.44-2.325c-2.025 3.442-4.741 6.458-6.409 10.116-1.536 3.38-0.65 4.846 2.688 6.556 2.576 1.327 5.306 3.352 8.119 4.162 1.948-4.6 4.811-8.756 6.445-13.489A5.313 5.313 0 0 1 35.495 107.645Z" fill="#ffffff" data-fill-palette-color="accent"></path><path d="M18.306 76.52c0.2-3.623 2.737-6.444 5.027-9.069 3.644-4.175 7.205-8.344 10.452-12.84 2.618-3.637 5.041-7.435 8.168-10.661 3.645-3.756 8.03-7.24 10.522-11.925a28.458 28.458 0 0 1 7.589-9.6c3.5-2.8 7.045-5.809 11.255-7.471 1.054-0.419 2.129-0.914 3.2-1.389a9.534 9.534 0 0 1 2.918-1.159 0.251 0.251 0 0 0 0.077-0.028 3.19 3.19 0 0 1 0.768-0.147 16.064 16.064 0 0 1 3.288-0.272c-1.277-1.787-3.141-3.086-5.39-1.529-1.913 1.327-3.937 2.416-5.962 3.561C66.2 16.253 62.1 18.417 58.109 20.728c-5.02 2.9-6.751 7.324-10.095 11.744A95.266 95.266 0 0 1 39.5 42.889c-3.659 3.623-6.556 8.5-9.223 12.923-2.248 3.721-4.071 7.827-7.226 10.9-1.934 1.885-3.687 3.721-5.446 5.76-1.348 1.571-4.364 2.981-2.528 5.2 2.535 3.072-0.286 6.1 0.671 9.433a14.156 14.156 0 0 0 1.55 2c0.3-0.167 0.607-0.328 0.914-0.474C21.05 85.5 18.1 80.4 18.306 76.52Z" fill="#ffffff" data-fill-palette-color="accent"></path><path d="M31.62 100.419c-1.92-2.248-3.8-4.6-5.515-7a26.773 26.773 0 0 1-2.772-4.58c-0.189-0.433-0.887-0.377-1.732-0.119-0.928 0.608-1.906 1.194-2.932 1.746 2.507 2.3 5.634 4.3 8.071 6.263A34.713 34.713 0 0 0 31.62 100.419Z" fill="#ffffff" data-fill-palette-color="accent"></path><path d="M66.809 32.423c-2.367 3.421-4.078 7.247-6.437 10.675-2.325 3.393-4.853 6.633-7.157 10.047a54.928 54.928 0 0 1-7.149 8.483c-1.7 1.683-3.226 3.519-4.867 5.257-1.04 1.1-2.248 2.088-3.288 3.2C36.933 71.549 35.963 73.015 35 74.5a50.906 50.906 0 0 1-8.714 10.613 6.958 6.958 0 0 0-1.347 3.344 0.9 0.9 0 0 1-0.042 0.147 42.254 42.254 0 0 0 5.041 7.3c0.551 0.677 1.061 1.347 1.585 2.038a20.7 20.7 0 0 0 1.487 1.844q1.089 1.675 1.969-1.187a0.794 0.794 0 0 1 0.579-1.1c0.349-1.313 0.587-2.591 0.74-3.037 1.606-4.6 4.783-8.428 6.3-13.084a42.563 42.563 0 0 1 5.425-11.849c1.7-2.429 3.77-4.81 4.831-7.617a50.922 50.922 0 0 1 2.486-5.753 81.2 81.2 0 0 1 7.791-11.806c1.676-2.151 3.289-4.713 5.411-6.458a28.715 28.715 0 0 1 5.251-3.107c3.951-2.095 7.344-4.853 11.513-6.619 1.41-0.6 8.21-2.018 5.934-5A37.952 37.952 0 0 1 88.2 19.283a3.425 3.425 0 0 0-1.578-1.361c-0.028 0.007-0.049 0.028-0.084 0.035-4.293 0.768-6.416 4.594-10.053 6.6C72.8 26.593 69.252 28.89 66.809 32.423ZM34.671 89.562a7.354 7.354 0 0 1-2.744 0.3 24.791 24.791 0 0 1-2.6-0.3c-0.663-0.1-1.1-0.2-1.11-0.37s0.391-0.356 1.075-0.468a14.6 14.6 0 0 1 2.688-0.041c1.013 0.048 1.892 0.09 2.528 0.062s1.047-0.069 1.131 0.1C35.705 88.969 35.363 89.3 34.671 89.562Zm1.055-3.491a8.09 8.09 0 0 1-2.94 0.3 17.821 17.821 0 0 1-2.813-0.44c-0.706-0.168-1.152-0.328-1.145-0.5s0.467-0.286 1.2-0.335a23.1 23.1 0 0 1 2.828 0.1c1.075 0.062 2.018 0.083 2.709 0.055s1.145-0.069 1.208 0.1C36.836 85.485 36.452 85.8 35.726 86.071Zm0.188-5c-0.712-0.125-1.326-0.2-1.766-0.265-0.489-0.035-0.838-0.091-0.866-0.258s0.223-0.377 0.719-0.559a4.712 4.712 0 0 1 2.123-0.077c1.571 0.329 2.632 0.95 2.569 1.25C38.623 81.5 37.324 81.366 35.914 81.072Zm2.758-4.461c-1.159-0.056-2.088-0.363-2.074-0.684s0.964-0.552 2.123-0.5c1.159 0.091 2.087 0.433 2.066 0.754S39.817 76.7 38.672 76.611ZM84.061 21.783a5.916 5.916 0 0 1 2.115 0.3c1.529 0.523 2.605 1.173 2.528 1.48s-1.432 0.14-2.884-0.356c-0.726-0.224-1.375-0.44-1.808-0.594-0.475-0.153-0.824-0.279-0.81-0.446S83.509 21.838 84.061 21.783Zm-0.656 2.953c2 0.279 3.581 0.768 3.553 1.1s-1.689 0.356-3.686 0.077c-2-0.251-3.6-0.719-3.561-1.04S81.4 24.485 83.405 24.736Zm-1.774 3.449c-0.077 0.342-1.71 0.335-3.8 0.37-2.2 0.035-3.819-0.51-3.791-0.8 0.021-0.349 1.787-0.335 3.791-0.377C79.963 27.34 81.708 27.892 81.631 28.185Z" fill="#ffffff" data-fill-palette-color="accent"></path><path d="M113.985 24.345c-0.67-2.339-1.4-4.622-2.018-6.975-0.7-2.639-1.571-5.222-2.325-7.834-0.209-0.733-0.775-4.035-2.3-2.946a21.253 21.253 0 0 1-2.311 1.641A140.625 140.625 0 0 0 89.36 17.279a6.9 6.9 0 0 1 0.656 0.95c1.11 1.92 3.051 3.351 3.6 5.306a0.849 0.849 0 0 1 0.1 0.07c2.164 1.843 0.684 3.819 0.279 6.13-0.349 1.99 1.18 3.826 0.579 5.655a4.557 4.557 0 0 1 0.748 0.761c2.96-1.047 5.627-2.751 8.545-3.917a57.592 57.592 0 0 0 5.7-2.506C111.7 28.59 114.809 27.249 113.985 24.345Z" fill="#ffffff" data-fill-palette-color="accent"></path><path d="M92.683 36.654a1.039 1.039 0 0 1-0.377-1.431c0.866-1.145-0.419-3.715-0.495-5.062a10.324 10.324 0 0 1 0.81-2.793c-1.425 1.278-3.91 1.7-5.439 2.3-4.867 1.913-8.734 5.223-13.4 7.429-4.978 2.367-8.155 7.163-11.283 11.555a73.85 73.85 0 0 0-8.057 14.857c-1.683 4.036-5.188 7.08-7.094 11.01-2.234 4.6-3.176 9.6-5.746 14.069A60.425 60.425 0 0 0 37.15 99.246a7.964 7.964 0 0 1-1.913 3.442c-0.056 1.69 1.257 3.861 3.058 3.624 0.949-0.126 1.892-0.321 2.841-0.454a1.066 1.066 0 0 1 1.327 1c0.007 0.07 0.014 0.14 0.014 0.2 1.934-1.306 3.714-2.681 4.378-5.146 0.433-1.606 0.782-3.212 1.354-4.775 1.117-3.079 3.547-5.6 5.676-8.009 3.268-3.693 4.971-7.372 6.766-11.925a41.361 41.361 0 0 1 5.585-9.628 63.66 63.66 0 0 1 18.335-16.26c3.525-2.158 7.645-3.826 10.954-6.277C97.005 43.95 93.975 37.3 92.683 36.654ZM75.215 38.218a30.738 30.738 0 0 1 3.7-2.493c0.719-0.426 1.508-0.831 2.332-1.235 0.426-0.182 0.852-0.37 1.292-0.559 0.377-0.175 0.81-0.384 1.243-0.586A25.984 25.984 0 0 1 86.4 32.22a7.589 7.589 0 0 1 1.375-0.37 2.387 2.387 0 0 1 1.606 0.2 2.68 2.68 0 0 1 0.971 1.138 5.066 5.066 0 0 1 0.4 1.187 4.926 4.926 0 0 1 0.147 1.166 6.386 6.386 0 0 1-0.105 1.04c-0.111 0.656-0.328 1.2-0.37 1.627a1.752 1.752 0 0 0 0.217 1.061c0.307 0.58 0.572 0.894 0.5 0.957-0.048 0.042-0.412-0.133-0.893-0.713a2.141 2.141 0 0 1-0.489-1.34c0-0.58 0.168-1.117 0.209-1.7a5.8 5.8 0 0 0 0.015-0.921 4.678 4.678 0 0 0-0.175-0.936 2.834 2.834 0 0 0-0.97-1.62c-0.378-0.216-1.271 0.021-2.053 0.308-0.81 0.307-1.648 0.691-2.5 1.1-0.433 0.2-0.852 0.412-1.319 0.614-0.426 0.175-0.838 0.349-1.243 0.524-0.8 0.377-1.571 0.74-2.29 1.131A42.376 42.376 0 0 0 75.7 38.9c-2.053 1.348-3.2 2.423-3.324 2.29C72.276 41.094 73.2 39.81 75.215 38.218ZM90.1 43.112c0.014 0.182-0.824 0.377-2.059 0.978-0.622 0.293-1.355 0.691-2.2 1.11-0.419 0.209-0.872 0.419-1.389 0.628-0.252 0.112-0.489 0.175-0.74 0.265-0.14 0.042-0.224 0.077-0.412 0.126l-0.391 0.1a29.241 29.241 0 0 0-5.16 1.564c-1.2 0.551-1.941 1.138-2.052 0.977-0.056-0.056 0.063-0.258 0.321-0.565a5.831 5.831 0 0 1 1.326-1.138 17.188 17.188 0 0 1 5.272-1.983l0.391-0.1 0.349-0.105c0.244-0.084 0.509-0.146 0.719-0.244 0.44-0.161 0.887-0.342 1.319-0.524a23.5 23.5 0 0 1 2.346-0.893C89.144 42.875 90.093 42.966 90.1 43.112ZM50.171 90.784c-0.538 0.936-1.229 2.011-1.92 3.24a43.013 43.013 0 0 0-2.018 4.119 27.507 27.507 0 0 1-1.571 3.309 5.316 5.316 0 0 1-0.53 0.747 1.894 1.894 0 0 1-0.908 0.657 0.944 0.944 0 0 1-0.8-0.133 1.393 1.393 0 0 1-0.4-0.454c-0.056-0.112-0.1-0.209-0.139-0.314a2.074 2.074 0 0 1-0.761 0.133 1.468 1.468 0 0 1-1.194-0.622 2.094 2.094 0 0 1-0.349-0.991 3.562 3.562 0 0 1-0.007-0.817c0.111-0.97 0.439-1.431 0.516-1.389 0.105 0.035-0.021 0.544 0.042 1.4a2.379 2.379 0 0 0 0.426 1.32 0.618 0.618 0 0 0 0.552 0.216 2.283 2.283 0 0 0 0.844-0.307l0.51-0.266 0.189 0.559a2.356 2.356 0 0 0 0.244 0.552 0.225 0.225 0 0 0 0.07 0.083 1.384 1.384 0 0 0 0.321-0.314 5.743 5.743 0 0 0 0.412-0.628c0.524-0.929 0.956-2.06 1.452-3.2a33.3 33.3 0 0 1 2.157-4.2c0.768-1.236 1.544-2.276 2.179-3.17 1.354-1.7 2.255-2.7 2.381-2.6S51.337 88.976 50.171 90.784ZM61.237 72.617c-0.635 1.39-1.5 3.31-2.541 5.432A41.979 41.979 0 0 1 55.708 83.3a7.943 7.943 0 0 1-1.278 1.4c-0.356 0.265-0.586 0.356-0.635 0.307s0.07-0.279 0.314-0.635c0.216-0.342 0.537-0.852 0.893-1.515 0.706-1.313 1.585-3.247 2.647-5.341A59.035 59.035 0 0 1 60.5 72.219c0.845-1.3 1.438-2.052 1.578-1.969S61.886 71.235 61.237 72.617Zm-1.445-14.1c-1.082 1.578-1.857 2.472-1.99 2.395s0.391-1.159 1.285-2.835c0.873-1.668 2.066-4 3.526-6.528a33.477 33.477 0 0 1 4.433-6.067 15.742 15.742 0 0 1 1.711-1.522c0.433-0.328 0.691-0.482 0.747-0.419 0.118 0.133-0.65 1.033-1.823 2.486a61.314 61.314 0 0 0-4.049 6.116C62.187 54.646 60.867 56.929 59.792 58.521Zm26.133-9.034c-1.243 0.677-2.744 1.438-4.392 2.283-0.83 0.412-1.675 0.886-2.569 1.354-0.852 0.51-1.752 0.985-2.646 1.592a19.49 19.49 0 0 0-4.426 3.861c-1.222 1.368-2.277 2.681-3.247 3.721-1.934 2.137-3.421 3.079-3.512 2.974-0.126-0.132 1.187-1.326 2.877-3.511 0.872-1.09 1.85-2.451 3.065-3.9a18.627 18.627 0 0 1 4.6-4.141c0.886-0.6 1.843-1.1 2.744-1.612 0.907-0.468 1.78-0.922 2.632-1.313 1.689-0.8 3.218-1.48 4.5-2.059 2.555-1.159 4.105-1.941 4.2-1.788C89.828 47.071 88.411 48.125 85.925 49.487Zm8.05-5.621a2.483 2.483 0 0 1 0.014 0.915l-0.07 0.265c-0.042 0.1-0.1 0.2-0.146 0.3s-0.084 0.112-0.126 0.175a1.369 1.369 0 0 1-0.244 0.244 2.066 2.066 0 0 1-0.957 0.4 4.769 4.769 0 0 1-0.8 0.063c-0.482-0.007-0.887-0.042-1.215-0.07s-0.579-0.042-0.768-0.056-0.328-0.028-0.356-0.111 0.021-0.189 0.2-0.322a2.518 2.518 0 0 1 0.851-0.342c0.357-0.083 0.782-0.132 1.215-0.188a2.684 2.684 0 0 0 1.089-0.286l0.035-0.035a1.2 1.2 0 0 0 0.105-0.14 0.05 0.05 0 0 1 0.021-0.042c0.007-0.035 0.021-0.07 0.028-0.1a1.688 1.688 0 0 0 0.042-0.509 5.9 5.9 0 0 0-0.2-1.068c-0.167-0.636-0.293-1.062-0.153-1.152 0.125-0.091 0.509 0.181 0.914 0.809A3.774 3.774 0 0 1 93.975 43.866Z" fill="#ffffff" data-fill-palette-color="accent"></path></g></svg></g></svg></g><g></g></svg></g></svg></g></svg></g></svg></g><defs></defs></svg><rect width="375.07952880859375" height="241.12701416015625" fill="none" stroke="none" visibility="hidden"></rect></g></svg></g></svg>